<svg width="72" height="72" viewBox="0 0 72 72" fill="none" xmlns="http://www.w3.org/2000/svg">
<path fill-rule="evenodd" clip-rule="evenodd" d="M40.5684 0.00011102L43.5282 0.489652L39.1008 27.2577C39.4916 27.396 39.8676 27.5613 40.2272 27.7512L56.7993 7.75255L59.1093 9.66673L42.5904 29.6011C42.8906 29.9371 43.1638 30.2963 43.4072 30.675L68.1161 20.774L69.2319 23.5587L44.5598 33.4451C44.7222 34.1836 44.7874 34.9528 44.7433 35.736L71.4059 40.498L70.8784 43.4513L44.0518 38.66C43.8567 39.1094 43.6248 39.5367 43.3603 39.9386L64.7086 57.1583L62.8252 59.4934L41.2864 42.12C40.9193 42.3896 40.5307 42.6298 40.1245 42.8378L50.7786 68.8927L48.0018 70.0282L37.2415 43.7136C36.9541 43.747 36.6633 43.7659 36.3698 43.7695L31.7792 71.5246L28.8194 71.035L33.41 43.28C32.8636 43.0866 32.3458 42.8402 31.8619 42.5479L13.169 65.1058L10.859 63.1916L29.6079 40.5662C29.3842 40.2852 29.1783 39.9903 28.9915 39.6834L2.39797 50.3397L1.28209 47.555L27.9082 36.8856C27.8362 36.5142 27.7888 36.1355 27.7673 35.7516L1.80144e-05 30.7923L0.527473 27.8391L28.1303 32.769C28.2323 32.436 28.3536 32.1129 28.4928 31.8007L6.78371 14.2899L8.66719 11.9548L30.1887 29.3142C30.4564 29.0419 30.7419 28.7882 31.0428 28.5547L20.7505 3.38463L23.5273 2.24916L33.7121 27.1563C34.4865 26.9129 35.3031 26.7784 36.141 26.7681L40.5684 0.00011102Z" fill="#83A17D"/>
</svg>
